<?xml version="1.0" encoding="UTF-8" standalone="no"?>
<!DOCTYPE svg PUBLIC "-//W3C//DTD SVG 1.1//EN" "http://www.w3.org/Graphics/SVG/1.1/DTD/svg11.dtd">
<svg width="24" height="24" viewBox="0 0 24 24" version="1.1" xmlns="http://www.w3.org/2000/svg" xmlns:xlink="http://www.w3.org/1999/xlink" xml:space="preserve" xmlns:serif="http://www.serif.com/" style="fill-rule:evenodd;clip-rule:evenodd;stroke-linejoin:round;stroke-miterlimit:2;">
    <g transform="matrix(1.70935,0,0,2.17557,1.52056,15.9332)">
        <g transform="matrix(7,0,0,7,0,0)">
            <path fill="currentColor" d="M0.378,-0L0.236,-0L0.236,-0.488L0.069,-0.488L0.069,-0.583C0.113,-0.585 0.144,-0.588 0.162,-0.592C0.19,-0.598 0.212,-0.61 0.23,-0.629C0.242,-0.642 0.251,-0.659 0.257,-0.68C0.261,-0.692 0.263,-0.702 0.263,-0.708L0.378,-0.708L0.378,-0Z" style="fill-rule:nonzero;"/>
        </g>
        <g transform="matrix(7,0,0,7,3.61307,0)">
            <path fill="currentColor" d="M0.275,0.018C0.185,0.018 0.122,-0.014 0.086,-0.077C0.049,-0.14 0.031,-0.23 0.031,-0.347C0.031,-0.464 0.049,-0.554 0.086,-0.618C0.122,-0.681 0.185,-0.713 0.275,-0.713C0.366,-0.713 0.429,-0.681 0.465,-0.618C0.501,-0.554 0.52,-0.464 0.52,-0.347C0.52,-0.23 0.501,-0.14 0.465,-0.077C0.429,-0.014 0.366,0.018 0.275,0.018ZM0.357,-0.161C0.37,-0.204 0.376,-0.266 0.376,-0.347C0.376,-0.432 0.37,-0.496 0.357,-0.537C0.344,-0.578 0.317,-0.598 0.275,-0.598C0.234,-0.598 0.207,-0.578 0.193,-0.537C0.18,-0.496 0.173,-0.432 0.173,-0.347C0.173,-0.266 0.18,-0.204 0.193,-0.16C0.207,-0.117 0.234,-0.096 0.275,-0.096C0.317,-0.096 0.344,-0.117 0.357,-0.161Z" style="fill-rule:nonzero;"/>
        </g>
        <g transform="matrix(7,0,0,7,7.50613,0)">
            <path fill="currentColor" d="M0.275,0.018C0.185,0.018 0.122,-0.014 0.086,-0.077C0.049,-0.14 0.031,-0.23 0.031,-0.347C0.031,-0.464 0.049,-0.554 0.086,-0.618C0.122,-0.681 0.185,-0.713 0.275,-0.713C0.366,-0.713 0.429,-0.681 0.465,-0.618C0.501,-0.554 0.52,-0.464 0.52,-0.347C0.52,-0.23 0.501,-0.14 0.465,-0.077C0.429,-0.014 0.366,0.018 0.275,0.018ZM0.357,-0.161C0.37,-0.204 0.376,-0.266 0.376,-0.347C0.376,-0.432 0.37,-0.496 0.357,-0.537C0.344,-0.578 0.317,-0.598 0.275,-0.598C0.234,-0.598 0.207,-0.578 0.193,-0.537C0.18,-0.496 0.173,-0.432 0.173,-0.347C0.173,-0.266 0.18,-0.204 0.193,-0.16C0.207,-0.117 0.234,-0.096 0.275,-0.096C0.317,-0.096 0.344,-0.117 0.357,-0.161Z" style="fill-rule:nonzero;"/>
        </g>
    </g>
</svg>
