<?xml version="1.0" encoding="UTF-8" standalone="no"?>
<!DOCTYPE svg PUBLIC "-//W3C//DTD SVG 1.1//EN" "http://www.w3.org/Graphics/SVG/1.1/DTD/svg11.dtd">
<svg width="100%" height="100%" viewBox="0 0 32 32" version="1.1" xmlns="http://www.w3.org/2000/svg" xmlns:xlink="http://www.w3.org/1999/xlink" xml:space="preserve" xmlns:serif="http://www.serif.com/" style="fill-rule:evenodd;clip-rule:evenodd;stroke-linejoin:round;stroke-miterlimit:2;">
    <g transform="matrix(0.599645,0,0,0.599645,-3.51287,-3.23884)">
        <path d="M57,34.33C56.956,36.361 55.273,38.008 53.241,38.008C53.161,38.008 53.08,38.005 53,38L38.34,38L27.81,52.59C27.621,52.848 27.32,53.001 27,53L21,53C20.662,53.002 20.346,52.832 20.16,52.55C19.975,52.268 19.944,51.91 20.08,51.6L26,38L20.45,38C13.622,37.995 8.005,32.378 8,25.55L8,21C8,20.451 8.451,20 9,20L15,20C15.36,20.001 15.693,20.196 15.87,20.51L18.58,25.33L25.71,25.33L20.08,12.4C19.926,12.077 19.956,11.695 20.16,11.4C20.357,11.137 20.672,10.987 21,11L27,11C27.32,10.999 27.621,11.152 27.81,11.41L37.86,25.33L46,25.33C50.46,25.33 51.6,27.88 51.9,29.17C53.38,29.78 57,31.57 57,34.33ZM53,36C53.33,36 55,35.9 55,34.33C55,33 52.56,31.6 51.06,31L46,31C45.451,31 45,30.549 45,30C45,29.451 45.451,29 46,29L49.75,29C49.38,28.26 48.42,27.33 46,27.33L18,27.33C17.64,27.329 17.307,27.134 17.13,26.82L14.42,22L10,22L10,25.55C10.005,31.281 14.719,35.995 20.45,36L26.86,36L27.86,33.6C28.019,33.235 28.382,32.999 28.78,33L40,33C40.374,32.999 40.718,33.208 40.89,33.54C41.064,33.876 41.033,34.284 40.81,34.59L39.81,36L53,36ZM37,36.41L38,35L29.48,35L28.48,37.4L22.53,51L26.53,51L37,36.43L37,36.41ZM35.39,25.33L26.49,13L22.49,13L27.85,25.33L35.39,25.33Z" style="fill:rgb(0,93,114);fill-rule:nonzero;"/>
        <path d="M55,34.33C55,35.9 53.33,36 53,36L39.79,36L40.79,34.59C41.013,34.284 41.044,33.876 40.87,33.54C40.701,33.214 40.367,33.007 40,33L28.82,33C28.422,32.999 28.059,33.235 27.9,33.6L26.9,36L20.45,36C14.719,35.995 10.005,31.281 10,25.55L10,22L14.42,22L17.13,26.82C17.307,27.134 17.64,27.329 18,27.33L46,27.33C48.42,27.33 49.38,28.26 49.75,29L46,29C45.451,29 45,29.451 45,30C45,30.549 45.451,31 46,31L51.06,31C52.56,31.6 55,33 55,34.33ZM43,30C43,29.451 42.549,29 42,29L41,29C40.451,29 40,29.451 40,30C40,30.549 40.451,31 41,31L42,31C42.549,31 43,30.549 43,30ZM38,30C38,29.451 37.549,29 37,29L36,29C35.451,29 35,29.451 35,30C35,30.549 35.451,31 36,31L37,31C37.549,31 38,30.549 38,30ZM33,30C33,29.451 32.549,29 32,29L31,29C30.451,29 30,29.451 30,30C30,30.549 30.451,31 31,31L32,31C32.549,31 33,30.549 33,30ZM28,30C28,29.451 27.549,29 27,29L26,29C25.451,29 25,29.451 25,30C25,30.549 25.451,31 26,31L27,31C27.549,31 28,30.549 28,30ZM23,30C23,29.451 22.549,29 22,29L21,29C20.451,29 20,29.451 20,30C20,30.549 20.451,31 21,31L22,31C22.549,31 23,30.549 23,30Z" style="fill:rgb(0,170,198);fill-rule:nonzero;"/>
        <path d="M42,29C42.549,29 43,29.451 43,30C43,30.549 42.549,31 42,31L41,31C40.451,31 40,30.549 40,30C40,29.451 40.451,29 41,29L42,29Z" style="fill:rgb(0,93,114);fill-rule:nonzero;"/>
        <path d="M38,35L37,36.41L26.49,51L22.49,51L28.39,37.41L29.39,35.01L38,35Z" style="fill:rgb(249,209,120);fill-rule:nonzero;"/>
        <path d="M37,29C37.549,29 38,29.451 38,30C38,30.549 37.549,31 37,31L36,31C35.451,31 35,30.549 35,30C35,29.451 35.451,29 36,29L37,29Z" style="fill:rgb(0,93,114);fill-rule:nonzero;"/>
        <path d="M26.49,13L35.39,25.33L27.89,25.33L22.53,13L26.49,13Z" style="fill:rgb(249,128,128);fill-rule:nonzero;"/>
        <path d="M32,29C32.549,29 33,29.451 33,30C33,30.549 32.549,31 32,31L31,31C30.451,31 30,30.549 30,30C30,29.451 30.451,29 31,29L32,29ZM27,29C27.549,29 28,29.451 28,30C28,30.549 27.549,31 27,31L26,31C25.451,31 25,30.549 25,30C25,29.451 25.451,29 26,29L27,29ZM22,29C22.549,29 23,29.451 23,30C23,30.549 22.549,31 22,31L21,31C20.451,31 20,30.549 20,30C20,29.451 20.451,29 21,29L22,29Z" style="fill:rgb(0,93,114);fill-rule:nonzero;"/>
    </g>
</svg>
